<svg t="1771986321633" class="icon" viewBox="0 0 1024 1024" version="1.1" xmlns="http://www.w3.org/2000/svg" p-id="2327" width="200" height="200"><path d="M371.126857 505.453714c13.019429 10.496 26.368 20.48 41.508572 28.452572 77.092571 40.667429 176.493714 29.001143 239.286857-28.196572h1.755428c64.658286 38.765714 107.702857 105.142857 113.664 175.762286 2.084571 24.502857 0.073143 44.068571-17.993143 63.268571-50.688 53.869714-187.392 61.659429-260.278857 59.538286-63.488-1.865143-170.971429-15.36-214.637714-61.622857-20.589714-21.833143-20.114286-43.556571-16.530286-70.948571 8.667429-67.108571 51.2-129.572571 113.225143-166.253715z" p-id="2328"></path><path d="M498.395429 219.830857c146.468571-9.362286 239.908571 139.556571 154.258285 248.832-74.898286 95.561143-236.251429 84.736-294.509714-19.785143-55.588571-99.693714 17.700571-221.184 140.251429-229.046857z" p-id="2329"></path></svg>